<?xml version="1.0" encoding="UTF-8"?>
<svg xmlns="http://www.w3.org/2000/svg" viewBox="0 0 400 300" width="100%" height="100%">
  <defs>
    <linearGradient id="bgGrad" x1="0%" y1="0%" x2="100%" y2="100%">
      <stop offset="0%" stop-color="#451a03" />
      <stop offset="100%" stop-color="#1c1917" />
    </linearGradient>
    <filter id="glow" x="-20%" y="-20%" width="140%" height="140%">
      <feGaussianBlur stdDeviation="15" result="blur" />
      <feComposite in="SourceGraphic" in2="blur" operator="over" />
    </filter>
  </defs>

  <!-- Background Card -->
  <rect width="400" height="300" rx="20" fill="url(#bgGrad)" />
  
  <!-- Subtle Lighting Ring -->
  <circle cx="200" cy="190" r="120" fill="#fbbf24" opacity="0.08" filter="url(#glow)" />
  
  <!-- Content Visuals -->
  
          <!-- Plate -->
          <ellipse cx="200" cy="220" rx="140" ry="70" fill="#f8fafc" opacity="0.95" />
          <ellipse cx="200" cy="215" rx="125" ry="60" fill="#f1f5f9" />
          <!-- Fragrant Rice -->
          <ellipse cx="140" cy="210" rx="60" ry="35" fill="#fef08a" />
          <ellipse cx="140" cy="205" rx="52" ry="28" fill="#fef9c3" />
          <!-- Boiled Chicken Cutlets with Soy Glaze -->
          <g filter="drop-shadow(0 6px 4px rgba(0,0,0,0.3))">
            <path d="M 180 165 C 220 150 270 175 260 210 C 220 230 180 215 180 165 Z" fill="#fffbeb" stroke="#fcd34d" stroke-width="2" />
            <!-- Blood Cubes -->
            <rect x="235" y="215" width="30" height="18" rx="4" fill="#881337" />
            <!-- Cucumber Slices -->
            <ellipse cx="275" cy="210" rx="15" ry="8" fill="#22c55e" />
            <ellipse cx="275" cy="210" rx="9" ry="4" fill="#86efac" />
            <!-- Cilantro Top -->
            <path d="M 210 170 Q 215 160 220 170 Q 225 160 230 170 Z" fill="#15803d" />
          </g>
        

  <!-- Banner overlay for dish title -->
  <rect x="0" y="250" width="400" height="50" fill="rgba(15, 23, 42, 0.75)" />
  <text x="200" y="282" font-family="'Kanit', 'Sukhumvit Set', 'Inter', sans-serif" font-size="16" font-weight="600" fill="#ffffff" text-anchor="middle">
    ข้าวมันไก่หำไหล(ไก่ต้ม+เลือด)
  </text>
</svg>